<svg xmlns="http://www.w3.org/2000/svg" xmlns:ev="http://www.w3.org/2001/xml-events" xmlns:xlink="http://www.w3.org/1999/xlink" baseProfile="full" height="100%" version="1.1" viewBox="0,0,300,250" width="100%"><defs/><rect fill="white" height="10" rx="0" ry="0" stroke="#cccccc" width="10" x="0" y="200"/><rect fill="white" height="10" rx="0" ry="0" stroke="#cccccc" width="10" x="10" y="200"/><rect fill="#d1eaf3" height="10" rx="1" ry="1" stroke="#112543" width="10" x="20" y="200"/><rect fill="white" height="10" rx="0" ry="0" stroke="#cccccc" width="10" x="30" y="200"/><rect fill="white" height="10" rx="0" ry="0" stroke="#cccccc" width="10" x="40" y="200"/><rect fill="white" height="10" rx="0" ry="0" stroke="#cccccc" width="10" x="50" y="200"/><rect fill="white" height="10" rx="0" ry="0" stroke="#cccccc" width="10" x="60" y="200"/><rect fill="white" height="10" rx="0" ry="0" stroke="#cccccc" width="10" x="70" y="200"/><rect fill="white" height="10" rx="0" ry="0" stroke="#cccccc" width="10" x="80" y="200"/><rect fill="white" height="10" rx="0" ry="0" stroke="#cccccc" width="10" x="90" y="200"/><rect fill="white" height="10" rx="0" ry="0" stroke="#cccccc" width="10" x="0" y="190"/><rect fill="#d1eaf3" height="10" rx="1" ry="1" stroke="#112543" width="10" x="10" y="190"/><rect fill="#d1eaf3" height="10" rx="1" ry="1" stroke="#112543" width="10" x="20" y="190"/><rect fill="#d1eaf3" height="10" rx="1" ry="1" stroke="#112543" width="10" x="30" y="190"/><rect fill="#d1eaf3" height="10" rx="1" ry="1" stroke="#112543" width="10" x="40" y="190"/><rect fill="#d1eaf3" height="10" rx="1" ry="1" stroke="#112543" width="10" x="50" y="190"/><rect fill="white" height="10" rx="0" ry="0" stroke="#cccccc" width="10" x="60" y="190"/><rect fill="white" height="10" rx="0" ry="0" stroke="#cccccc" width="10" x="70" y="190"/><rect fill="white" height="10" rx="0" ry="0" stroke="#cccccc" width="10" x="80" y="190"/><rect fill="white" height="10" rx="0" ry="0" stroke="#cccccc" width="10" x="90" y="190"/><rect fill="white" height="10" rx="0" ry="0" stroke="#cccccc" width="10" x="0" y="180"/><rect fill="white" height="10" rx="0" ry="0" stroke="#cccccc" width="10" x="10" y="180"/><rect fill="white" height="10" rx="0" ry="0" stroke="#cccccc" width="10" x="20" y="180"/><rect fill="#d1eaf3" height="10" rx="1" ry="1" stroke="#112543" width="10" x="30" y="180"/><rect fill="#d1eaf3" height="10" rx="1" ry="1" stroke="#112543" width="10" x="40" y="180"/><rect fill="white" height="10" rx="0" ry="0" stroke="#cccccc" width="10" x="50" y="180"/><rect fill="white" height="10" rx="0" ry="0" stroke="#cccccc" width="10" x="60" y="180"/><rect fill="white" height="10" rx="0" ry="0" stroke="#cccccc" width="10" x="70" y="180"/><rect fill="white" height="10" rx="0" ry="0" stroke="#cccccc" width="10" x="80" y="180"/><rect fill="white" height="10" rx="0" ry="0" stroke="#cccccc" width="10" x="90" y="180"/><rect fill="white" height="10" rx="0" ry="0" stroke="#cccccc" width="10" x="0" y="170"/><rect fill="white" height="10" rx="0" ry="0" stroke="#cccccc" width="10" x="10" y="170"/><rect fill="white" height="10" rx="0" ry="0" stroke="#cccccc" width="10" x="20" y="170"/><rect fill="white" height="10" rx="0" ry="0" stroke="#cccccc" width="10" x="30" y="170"/><rect fill="white" height="10" rx="0" ry="0" stroke="#cccccc" width="10" x="40" y="170"/><rect fill="white" height="10" rx="0" ry="0" stroke="#cccccc" width="10" x="50" y="170"/><rect fill="white" height="10" rx="0" ry="0" stroke="#cccccc" width="10" x="60" y="170"/><rect fill="white" height="10" rx="0" ry="0" stroke="#cccccc" width="10" x="70" y="170"/><rect fill="white" height="10" rx="0" ry="0" stroke="#cccccc" width="10" x="80" y="170"/><rect fill="white" height="10" rx="0" ry="0" stroke="#cccccc" width="10" x="90" y="170"/><rect fill="white" height="10" rx="0" ry="0" stroke="#cccccc" width="10" x="0" y="160"/><rect fill="white" height="10" rx="0" ry="0" stroke="#cccccc" width="10" x="10" y="160"/><rect fill="white" height="10" rx="0" ry="0" stroke="#cccccc" width="10" x="20" y="160"/><rect fill="white" height="10" rx="0" ry="0" stroke="#cccccc" width="10" x="30" y="160"/><rect fill="white" height="10" rx="0" ry="0" stroke="#cccccc" width="10" x="40" y="160"/><rect fill="white" height="10" rx="0" ry="0" stroke="#cccccc" width="10" x="50" y="160"/><rect fill="white" height="10" rx="0" ry="0" stroke="#cccccc" width="10" x="60" y="160"/><rect fill="white" height="10" rx="0" ry="0" stroke="#cccccc" width="10" x="70" y="160"/><rect fill="white" height="10" rx="0" ry="0" stroke="#cccccc" width="10" x="80" y="160"/><rect fill="white" height="10" rx="0" ry="0" stroke="#cccccc" width="10" x="90" y="160"/><rect fill="white" height="10" rx="0" ry="0" stroke="#cccccc" width="10" x="0" y="150"/><rect fill="white" height="10" rx="0" ry="0" stroke="#cccccc" width="10" x="10" y="150"/><rect fill="white" height="10" rx="0" ry="0" stroke="#cccccc" width="10" x="20" y="150"/><rect fill="white" height="10" rx="0" ry="0" stroke="#cccccc" width="10" x="30" y="150"/><rect fill="white" height="10" rx="0" ry="0" stroke="#cccccc" width="10" x="40" y="150"/><rect fill="white" height="10" rx="0" ry="0" stroke="#cccccc" width="10" x="50" y="150"/><rect fill="white" height="10" rx="0" ry="0" stroke="#cccccc" width="10" x="60" y="150"/><rect fill="white" height="10" rx="0" ry="0" stroke="#cccccc" width="10" x="70" y="150"/><rect fill="white" height="10" rx="0" ry="0" stroke="#cccccc" width="10" x="80" y="150"/><rect fill="white" height="10" rx="0" ry="0" stroke="#cccccc" width="10" x="90" y="150"/><rect fill="white" height="10" rx="0" ry="0" stroke="#cccccc" width="10" x="0" y="140"/><rect fill="white" height="10" rx="0" ry="0" stroke="#cccccc" width="10" x="10" y="140"/><rect fill="white" height="10" rx="0" ry="0" stroke="#cccccc" width="10" x="20" y="140"/><rect fill="white" height="10" rx="0" ry="0" stroke="#cccccc" width="10" x="30" y="140"/><rect fill="white" height="10" rx="0" ry="0" stroke="#cccccc" width="10" x="40" y="140"/><rect fill="white" height="10" rx="0" ry="0" stroke="#cccccc" width="10" x="50" y="140"/><rect fill="white" height="10" rx="0" ry="0" stroke="#cccccc" width="10" x="60" y="140"/><rect fill="white" height="10" rx="0" ry="0" stroke="#cccccc" width="10" x="70" y="140"/><rect fill="white" height="10" rx="0" ry="0" stroke="#cccccc" width="10" x="80" y="140"/><rect fill="white" height="10" rx="0" ry="0" stroke="#cccccc" width="10" x="90" y="140"/><rect fill="white" height="10" rx="0" ry="0" stroke="#cccccc" width="10" x="0" y="130"/><rect fill="white" height="10" rx="0" ry="0" stroke="#cccccc" width="10" x="10" y="130"/><rect fill="white" height="10" rx="0" ry="0" stroke="#cccccc" width="10" x="20" y="130"/><rect fill="white" height="10" rx="0" ry="0" stroke="#cccccc" width="10" x="30" y="130"/><rect fill="white" height="10" rx="0" ry="0" stroke="#cccccc" width="10" x="40" y="130"/><rect fill="white" height="10" rx="0" ry="0" stroke="#cccccc" width="10" x="50" y="130"/><rect fill="white" height="10" rx="0" ry="0" stroke="#cccccc" width="10" x="60" y="130"/><rect fill="white" height="10" rx="0" ry="0" stroke="#cccccc" width="10" x="70" y="130"/><rect fill="white" height="10" rx="0" ry="0" stroke="#cccccc" width="10" x="80" y="130"/><rect fill="white" height="10" rx="0" ry="0" stroke="#cccccc" width="10" x="90" y="130"/><rect fill="white" height="10" rx="0" ry="0" stroke="#cccccc" width="10" x="0" y="120"/><rect fill="white" height="10" rx="0" ry="0" stroke="#cccccc" width="10" x="10" y="120"/><rect fill="white" height="10" rx="0" ry="0" stroke="#cccccc" width="10" x="20" y="120"/><rect fill="white" height="10" rx="0" ry="0" stroke="#cccccc" width="10" x="30" y="120"/><rect fill="white" height="10" rx="0" ry="0" stroke="#cccccc" width="10" x="40" y="120"/><rect fill="white" height="10" rx="0" ry="0" stroke="#cccccc" width="10" x="50" y="120"/><rect fill="white" height="10" rx="0" ry="0" stroke="#cccccc" width="10" x="60" y="120"/><rect fill="white" height="10" rx="0" ry="0" stroke="#cccccc" width="10" x="70" y="120"/><rect fill="white" height="10" rx="0" ry="0" stroke="#cccccc" width="10" x="80" y="120"/><rect fill="white" height="10" rx="0" ry="0" stroke="#cccccc" width="10" x="90" y="120"/><rect fill="white" height="10" rx="0" ry="0" stroke="#cccccc" width="10" x="0" y="110"/><rect fill="white" height="10" rx="0" ry="0" stroke="#cccccc" width="10" x="10" y="110"/><rect fill="white" height="10" rx="0" ry="0" stroke="#cccccc" width="10" x="20" y="110"/><rect fill="white" height="10" rx="0" ry="0" stroke="#cccccc" width="10" x="30" y="110"/><rect fill="white" height="10" rx="0" ry="0" stroke="#cccccc" width="10" x="40" y="110"/><rect fill="white" height="10" rx="0" ry="0" stroke="#cccccc" width="10" x="50" y="110"/><rect fill="white" height="10" rx="0" ry="0" stroke="#cccccc" width="10" x="60" y="110"/><rect fill="white" height="10" rx="0" ry="0" stroke="#cccccc" width="10" x="70" y="110"/><rect fill="white" height="10" rx="0" ry="0" stroke="#cccccc" width="10" x="80" y="110"/><rect fill="white" height="10" rx="0" ry="0" stroke="#cccccc" width="10" x="90" y="110"/><rect fill="white" height="10" rx="0" ry="0" stroke="#cccccc" width="10" x="0" y="100"/><rect fill="white" height="10" rx="0" ry="0" stroke="#cccccc" width="10" x="10" y="100"/><rect fill="white" height="10" rx="0" ry="0" stroke="#cccccc" width="10" x="20" y="100"/><rect fill="white" height="10" rx="0" ry="0" stroke="#cccccc" width="10" x="30" y="100"/><rect fill="white" height="10" rx="0" ry="0" stroke="#cccccc" width="10" x="40" y="100"/><rect fill="white" height="10" rx="0" ry="0" stroke="#cccccc" width="10" x="50" y="100"/><rect fill="white" height="10" rx="0" ry="0" stroke="#cccccc" width="10" x="60" y="100"/><rect fill="white" height="10" rx="0" ry="0" stroke="#cccccc" width="10" x="70" y="100"/><rect fill="white" height="10" rx="0" ry="0" stroke="#cccccc" width="10" x="80" y="100"/><rect fill="white" height="10" rx="0" ry="0" stroke="#cccccc" width="10" x="90" y="100"/><rect fill="white" height="10" rx="0" ry="0" stroke="#cccccc" width="10" x="0" y="90"/><rect fill="white" height="10" rx="0" ry="0" stroke="#cccccc" width="10" x="10" y="90"/><rect fill="white" height="10" rx="0" ry="0" stroke="#cccccc" width="10" x="20" y="90"/><rect fill="white" height="10" rx="0" ry="0" stroke="#cccccc" width="10" x="30" y="90"/><rect fill="white" height="10" rx="0" ry="0" stroke="#cccccc" width="10" x="40" y="90"/><rect fill="white" height="10" rx="0" ry="0" stroke="#cccccc" width="10" x="50" y="90"/><rect fill="white" height="10" rx="0" ry="0" stroke="#cccccc" width="10" x="60" y="90"/><rect fill="white" height="10" rx="0" ry="0" stroke="#cccccc" width="10" x="70" y="90"/><rect fill="white" height="10" rx="0" ry="0" stroke="#cccccc" width="10" x="80" y="90"/><rect fill="white" height="10" rx="0" ry="0" stroke="#cccccc" width="10" x="90" y="90"/><rect fill="white" height="10" rx="0" ry="0" stroke="#cccccc" width="10" x="0" y="80"/><rect fill="white" height="10" rx="0" ry="0" stroke="#cccccc" width="10" x="10" y="80"/><rect fill="white" height="10" rx="0" ry="0" stroke="#cccccc" width="10" x="20" y="80"/><rect fill="white" height="10" rx="0" ry="0" stroke="#cccccc" width="10" x="30" y="80"/><rect fill="white" height="10" rx="0" ry="0" stroke="#cccccc" width="10" x="40" y="80"/><rect fill="white" height="10" rx="0" ry="0" stroke="#cccccc" width="10" x="50" y="80"/><rect fill="white" height="10" rx="0" ry="0" stroke="#cccccc" width="10" x="60" y="80"/><rect fill="white" height="10" rx="0" ry="0" stroke="#cccccc" width="10" x="70" y="80"/><rect fill="white" height="10" rx="0" ry="0" stroke="#cccccc" width="10" x="80" y="80"/><rect fill="white" height="10" rx="0" ry="0" stroke="#cccccc" width="10" x="90" y="80"/><rect fill="white" height="10" rx="0" ry="0" stroke="#cccccc" width="10" x="0" y="70"/><rect fill="white" height="10" rx="0" ry="0" stroke="#cccccc" width="10" x="10" y="70"/><rect fill="white" height="10" rx="0" ry="0" stroke="#cccccc" width="10" x="20" y="70"/><rect fill="white" height="10" rx="0" ry="0" stroke="#cccccc" width="10" x="30" y="70"/><rect fill="white" height="10" rx="0" ry="0" stroke="#cccccc" width="10" x="40" y="70"/><rect fill="white" height="10" rx="0" ry="0" stroke="#cccccc" width="10" x="50" y="70"/><rect fill="white" height="10" rx="0" ry="0" stroke="#cccccc" width="10" x="60" y="70"/><rect fill="white" height="10" rx="0" ry="0" stroke="#cccccc" width="10" x="70" y="70"/><rect fill="white" height="10" rx="0" ry="0" stroke="#cccccc" width="10" x="80" y="70"/><rect fill="white" height="10" rx="0" ry="0" stroke="#cccccc" width="10" x="90" y="70"/><rect fill="white" height="10" rx="0" ry="0" stroke="#cccccc" width="10" x="0" y="60"/><rect fill="white" height="10" rx="0" ry="0" stroke="#cccccc" width="10" x="10" y="60"/><rect fill="white" height="10" rx="0" ry="0" stroke="#cccccc" width="10" x="20" y="60"/><rect fill="white" height="10" rx="0" ry="0" stroke="#cccccc" width="10" x="30" y="60"/><rect fill="white" height="10" rx="0" ry="0" stroke="#cccccc" width="10" x="40" y="60"/><rect fill="white" height="10" rx="0" ry="0" stroke="#cccccc" width="10" x="50" y="60"/><rect fill="white" height="10" rx="0" ry="0" stroke="#cccccc" width="10" x="60" y="60"/><rect fill="white" height="10" rx="0" ry="0" stroke="#cccccc" width="10" x="70" y="60"/><rect fill="white" height="10" rx="0" ry="0" stroke="#cccccc" width="10" x="80" y="60"/><rect fill="white" height="10" rx="0" ry="0" stroke="#cccccc" width="10" x="90" y="60"/><rect fill="white" height="10" rx="0" ry="0" stroke="#cccccc" width="10" x="0" y="50"/><rect fill="white" height="10" rx="0" ry="0" stroke="#cccccc" width="10" x="10" y="50"/><rect fill="white" height="10" rx="0" ry="0" stroke="#cccccc" width="10" x="20" y="50"/><rect fill="white" height="10" rx="0" ry="0" stroke="#cccccc" width="10" x="30" y="50"/><rect fill="white" height="10" rx="0" ry="0" stroke="#cccccc" width="10" x="40" y="50"/><rect fill="white" height="10" rx="0" ry="0" stroke="#cccccc" width="10" x="50" y="50"/><rect fill="white" height="10" rx="0" ry="0" stroke="#cccccc" width="10" x="60" y="50"/><rect fill="white" height="10" rx="0" ry="0" stroke="#cccccc" width="10" x="70" y="50"/><rect fill="white" height="10" rx="0" ry="0" stroke="#cccccc" width="10" x="80" y="50"/><rect fill="white" height="10" rx="0" ry="0" stroke="#cccccc" width="10" x="90" y="50"/><rect fill="white" height="10" rx="0" ry="0" stroke="#cccccc" width="10" x="0" y="40"/><rect fill="white" height="10" rx="0" ry="0" stroke="#cccccc" width="10" x="10" y="40"/><rect fill="white" height="10" rx="0" ry="0" stroke="#cccccc" width="10" x="20" y="40"/><rect fill="white" height="10" rx="0" ry="0" stroke="#cccccc" width="10" x="30" y="40"/><rect fill="white" height="10" rx="0" ry="0" stroke="#cccccc" width="10" x="40" y="40"/><rect fill="white" height="10" rx="0" ry="0" stroke="#cccccc" width="10" x="50" y="40"/><rect fill="white" height="10" rx="0" ry="0" stroke="#cccccc" width="10" x="60" y="40"/><rect fill="white" height="10" rx="0" ry="0" stroke="#cccccc" width="10" x="70" y="40"/><rect fill="white" height="10" rx="0" ry="0" stroke="#cccccc" width="10" x="80" y="40"/><rect fill="white" height="10" rx="0" ry="0" stroke="#cccccc" width="10" x="90" y="40"/><rect fill="white" height="10" rx="0" ry="0" stroke="#cccccc" width="10" x="0" y="30"/><rect fill="white" height="10" rx="0" ry="0" stroke="#cccccc" width="10" x="10" y="30"/><rect fill="white" height="10" rx="0" ry="0" stroke="#cccccc" width="10" x="20" y="30"/><rect fill="white" height="10" rx="0" ry="0" stroke="#cccccc" width="10" x="30" y="30"/><rect fill="white" height="10" rx="0" ry="0" stroke="#cccccc" width="10" x="40" y="30"/><rect fill="white" height="10" rx="0" ry="0" stroke="#cccccc" width="10" x="50" y="30"/><rect fill="white" height="10" rx="0" ry="0" stroke="#cccccc" width="10" x="60" y="30"/><rect fill="white" height="10" rx="0" ry="0" stroke="#cccccc" width="10" x="70" y="30"/><rect fill="white" height="10" rx="0" ry="0" stroke="#cccccc" width="10" x="80" y="30"/><rect fill="white" height="10" rx="0" ry="0" stroke="#cccccc" width="10" x="90" y="30"/><rect fill="white" height="10" rx="0" ry="0" stroke="#cccccc" width="10" x="0" y="20"/><rect fill="white" height="10" rx="0" ry="0" stroke="#cccccc" width="10" x="10" y="20"/><rect fill="white" height="10" rx="0" ry="0" stroke="#cccccc" width="10" x="20" y="20"/><rect fill="white" height="10" rx="0" ry="0" stroke="#cccccc" width="10" x="30" y="20"/><rect fill="white" height="10" rx="0" ry="0" stroke="#cccccc" width="10" x="40" y="20"/><rect fill="white" height="10" rx="0" ry="0" stroke="#cccccc" width="10" x="50" y="20"/><rect fill="white" height="10" rx="0" ry="0" stroke="#cccccc" width="10" x="60" y="20"/><rect fill="white" height="10" rx="0" ry="0" stroke="#cccccc" width="10" x="70" y="20"/><rect fill="white" height="10" rx="0" ry="0" stroke="#cccccc" width="10" x="80" y="20"/><rect fill="white" height="10" rx="0" ry="0" stroke="#cccccc" width="10" x="90" y="20"/><rect fill="white" height="10" rx="0" ry="0" stroke="#cccccc" width="10" x="0" y="10"/><rect fill="white" height="10" rx="0" ry="0" stroke="#cccccc" width="10" x="10" y="10"/><rect fill="white" height="10" rx="0" ry="0" stroke="#cccccc" width="10" x="20" y="10"/><rect fill="white" height="10" rx="0" ry="0" stroke="#cccccc" width="10" x="30" y="10"/><rect fill="white" height="10" rx="0" ry="0" stroke="#cccccc" width="10" x="40" y="10"/><rect fill="white" height="10" rx="0" ry="0" stroke="#cccccc" width="10" x="50" y="10"/><rect fill="white" height="10" rx="0" ry="0" stroke="#cccccc" width="10" x="60" y="10"/><rect fill="white" height="10" rx="0" ry="0" stroke="#cccccc" width="10" x="70" y="10"/><rect fill="white" height="10" rx="0" ry="0" stroke="#cccccc" width="10" x="80" y="10"/><rect fill="white" height="10" rx="0" ry="0" stroke="#cccccc" width="10" x="90" y="10"/></svg>